# xmcd
#
# Track frame offsets:
#	150
#	18545
#	34312
#	53235
#	70572
#	86452
#	99195
#	118677
#	134460
#	153252
#	173470
#	188662
#
# Disc length: 2745 seconds
# Revision: 0
# Processed by: cddbd v1.5.2PL0 Copyright (c) Steve Scherf et al.
# Submitted via: dBpowerAMP V12.0
#
DISCID=8e0ab70c
DTITLE=Various Artist - The Introduction Of Marcus Cooper
DYEAR=2009
DGENRE=Hip Hop
TTITLE0=Pleasure P featuring Yung Joc - I'm A Beast
TTITLE1=Pleasure P - Boyfriend #2
TTITLE2=Pleasure P - Tender Roni (Handcuffin)
TTITLE3=Pleasure P - Under
TTITLE4=Pleasure P - Let Me
TTITLE5=Pleasure P - Gotta Have You
TTITLE6=Pleasure P - Did You Wrong
TTITLE7=Pleasure P - Your Love
TTITLE8=Pleasure P - Fire Lovin
TTITLE9=Pleasure P - Brithday Suit
TTITLE10=Pleasure P - Illusion
TTITLE11=Pleasure P - Dream In The Air
EXTD=
EXTT0=
EXTT1=
EXTT2=
EXTT3=
EXTT4=
EXTT5=
EXTT6=
EXTT7=
EXTT8=
EXTT9=
EXTT10=
EXTT11=
PLAYORDER=
